<mxfile host="Electron" agent="Mozilla/5.0 (Windows NT 10.0; Win64; x64) AppleWebKit/537.36 (KHTML, like Gecko) draw.io/24.7.8 Chrome/128.0.6613.36 Electron/32.0.1 Safari/537.36" version="24.7.8">
  <diagram name="Page-1" id="b98fa263-6416-c6ec-5b7d-78bf54ef71d0">
    <mxGraphModel dx="1793" dy="1045" grid="1" gridSize="10" guides="1" tooltips="1" connect="1" arrows="1" fold="1" page="1" pageScale="1.5" pageWidth="1169" pageHeight="826" background="none" math="0" shadow="0">
      <root>
        <mxCell id="0" style=";html=1;" />
        <mxCell id="1" style=";html=1;" parent="0" />
        <mxCell id="303ed1de8c2c98b4-3" value="Apresentação da pagina&amp;nbsp;" style="whiteSpace=wrap;html=1;rounded=1;shadow=1;strokeWidth=1;fontSize=16;align=center;dashed=1;" parent="1" vertex="1">
          <mxGeometry x="589" y="310" width="600" height="40" as="geometry" />
        </mxCell>
        <mxCell id="PayPif_bL6CVU6YwnWkn-2" value="" style="edgeStyle=orthogonalEdgeStyle;rounded=0;orthogonalLoop=1;jettySize=auto;html=1;" edge="1" parent="1" source="303ed1de8c2c98b4-4" target="PayPif_bL6CVU6YwnWkn-1">
          <mxGeometry relative="1" as="geometry" />
        </mxCell>
        <mxCell id="PayPif_bL6CVU6YwnWkn-3" style="edgeStyle=orthogonalEdgeStyle;rounded=0;orthogonalLoop=1;jettySize=auto;html=1;exitX=0.75;exitY=1;exitDx=0;exitDy=0;" edge="1" parent="1" source="303ed1de8c2c98b4-4">
          <mxGeometry relative="1" as="geometry">
            <mxPoint x="1024" y="450" as="targetPoint" />
          </mxGeometry>
        </mxCell>
        <mxCell id="PayPif_bL6CVU6YwnWkn-5" style="edgeStyle=orthogonalEdgeStyle;rounded=0;orthogonalLoop=1;jettySize=auto;html=1;exitX=0.25;exitY=1;exitDx=0;exitDy=0;" edge="1" parent="1" source="303ed1de8c2c98b4-4">
          <mxGeometry relative="1" as="geometry">
            <mxPoint x="754" y="450" as="targetPoint" />
          </mxGeometry>
        </mxCell>
        <mxCell id="303ed1de8c2c98b4-4" value="pagina inicial&amp;nbsp;" style="whiteSpace=wrap;html=1;rounded=1;shadow=1;strokeWidth=1;fontSize=16;align=center;dashed=1;" parent="1" vertex="1">
          <mxGeometry x="634" y="380" width="510" height="40" as="geometry" />
        </mxCell>
        <mxCell id="PayPif_bL6CVU6YwnWkn-13" value="" style="edgeStyle=orthogonalEdgeStyle;rounded=0;orthogonalLoop=1;jettySize=auto;html=1;" edge="1" parent="1" source="303ed1de8c2c98b4-5" target="303ed1de8c2c98b4-7">
          <mxGeometry relative="1" as="geometry" />
        </mxCell>
        <mxCell id="PayPif_bL6CVU6YwnWkn-26" style="edgeStyle=orthogonalEdgeStyle;rounded=0;orthogonalLoop=1;jettySize=auto;html=1;exitX=0.5;exitY=1;exitDx=0;exitDy=0;entryX=1;entryY=0.5;entryDx=0;entryDy=0;" edge="1" parent="1" source="303ed1de8c2c98b4-5" target="303ed1de8c2c98b4-10">
          <mxGeometry relative="1" as="geometry">
            <Array as="points">
              <mxPoint x="582" y="660" />
            </Array>
          </mxGeometry>
        </mxCell>
        <mxCell id="PayPif_bL6CVU6YwnWkn-27" style="edgeStyle=orthogonalEdgeStyle;rounded=0;orthogonalLoop=1;jettySize=auto;html=1;exitX=0.5;exitY=1;exitDx=0;exitDy=0;entryX=0;entryY=0.5;entryDx=0;entryDy=0;" edge="1" parent="1" source="303ed1de8c2c98b4-5" target="303ed1de8c2c98b4-12">
          <mxGeometry relative="1" as="geometry">
            <Array as="points">
              <mxPoint x="582" y="660" />
            </Array>
          </mxGeometry>
        </mxCell>
        <mxCell id="PayPif_bL6CVU6YwnWkn-28" style="edgeStyle=orthogonalEdgeStyle;rounded=0;orthogonalLoop=1;jettySize=auto;html=1;exitX=0.5;exitY=1;exitDx=0;exitDy=0;entryX=1;entryY=0.5;entryDx=0;entryDy=0;" edge="1" parent="1" source="303ed1de8c2c98b4-5" target="303ed1de8c2c98b4-21">
          <mxGeometry relative="1" as="geometry">
            <Array as="points">
              <mxPoint x="582" y="770" />
            </Array>
          </mxGeometry>
        </mxCell>
        <mxCell id="PayPif_bL6CVU6YwnWkn-29" style="edgeStyle=orthogonalEdgeStyle;rounded=0;orthogonalLoop=1;jettySize=auto;html=1;exitX=0.5;exitY=1;exitDx=0;exitDy=0;entryX=0;entryY=0.5;entryDx=0;entryDy=0;" edge="1" parent="1" source="303ed1de8c2c98b4-5" target="303ed1de8c2c98b4-22">
          <mxGeometry relative="1" as="geometry">
            <Array as="points">
              <mxPoint x="582" y="770" />
            </Array>
          </mxGeometry>
        </mxCell>
        <mxCell id="303ed1de8c2c98b4-5" value="Previa de outras galerias" style="whiteSpace=wrap;html=1;rounded=1;shadow=1;strokeWidth=1;fontSize=16;align=center;dashed=1;" parent="1" vertex="1">
          <mxGeometry x="444" y="548" width="275" height="40" as="geometry" />
        </mxCell>
        <mxCell id="PayPif_bL6CVU6YwnWkn-10" value="" style="edgeStyle=orthogonalEdgeStyle;rounded=0;orthogonalLoop=1;jettySize=auto;html=1;" edge="1" parent="1" source="303ed1de8c2c98b4-6" target="303ed1de8c2c98b4-5">
          <mxGeometry relative="1" as="geometry" />
        </mxCell>
        <mxCell id="PayPif_bL6CVU6YwnWkn-11" style="edgeStyle=orthogonalEdgeStyle;rounded=0;orthogonalLoop=1;jettySize=auto;html=1;exitX=1;exitY=0.5;exitDx=0;exitDy=0;entryX=0;entryY=0.5;entryDx=0;entryDy=0;" edge="1" parent="1" source="303ed1de8c2c98b4-6" target="303ed1de8c2c98b4-8">
          <mxGeometry relative="1" as="geometry" />
        </mxCell>
        <mxCell id="PayPif_bL6CVU6YwnWkn-30" style="edgeStyle=orthogonalEdgeStyle;rounded=0;orthogonalLoop=1;jettySize=auto;html=1;exitX=0.5;exitY=1;exitDx=0;exitDy=0;entryX=1;entryY=0.5;entryDx=0;entryDy=0;" edge="1" parent="1" source="303ed1de8c2c98b4-6" target="303ed1de8c2c98b4-13">
          <mxGeometry relative="1" as="geometry">
            <Array as="points">
              <mxPoint x="889" y="660" />
            </Array>
          </mxGeometry>
        </mxCell>
        <mxCell id="PayPif_bL6CVU6YwnWkn-31" style="edgeStyle=orthogonalEdgeStyle;rounded=0;orthogonalLoop=1;jettySize=auto;html=1;exitX=0.5;exitY=1;exitDx=0;exitDy=0;entryX=0;entryY=0.5;entryDx=0;entryDy=0;" edge="1" parent="1" source="303ed1de8c2c98b4-6" target="303ed1de8c2c98b4-14">
          <mxGeometry relative="1" as="geometry">
            <Array as="points">
              <mxPoint x="889" y="660" />
            </Array>
          </mxGeometry>
        </mxCell>
        <mxCell id="PayPif_bL6CVU6YwnWkn-32" style="edgeStyle=orthogonalEdgeStyle;rounded=0;orthogonalLoop=1;jettySize=auto;html=1;exitX=0.5;exitY=1;exitDx=0;exitDy=0;entryX=1;entryY=0.5;entryDx=0;entryDy=0;" edge="1" parent="1" source="303ed1de8c2c98b4-6" target="303ed1de8c2c98b4-23">
          <mxGeometry relative="1" as="geometry">
            <Array as="points">
              <mxPoint x="889" y="770" />
            </Array>
          </mxGeometry>
        </mxCell>
        <mxCell id="PayPif_bL6CVU6YwnWkn-33" style="edgeStyle=orthogonalEdgeStyle;rounded=0;orthogonalLoop=1;jettySize=auto;html=1;exitX=0.5;exitY=1;exitDx=0;exitDy=0;entryX=0;entryY=0.5;entryDx=0;entryDy=0;" edge="1" parent="1" source="303ed1de8c2c98b4-6" target="303ed1de8c2c98b4-24">
          <mxGeometry relative="1" as="geometry">
            <Array as="points">
              <mxPoint x="889" y="770" />
            </Array>
          </mxGeometry>
        </mxCell>
        <mxCell id="303ed1de8c2c98b4-6" value="Tela de exibição&amp;nbsp;" style="whiteSpace=wrap;html=1;rounded=1;shadow=1;strokeWidth=1;fontSize=16;align=center;strokeColor=#97D077;" parent="1" vertex="1">
          <mxGeometry x="751" y="548" width="275" height="40" as="geometry" />
        </mxCell>
        <mxCell id="PayPif_bL6CVU6YwnWkn-24" style="edgeStyle=orthogonalEdgeStyle;rounded=0;orthogonalLoop=1;jettySize=auto;html=1;exitX=0.5;exitY=1;exitDx=0;exitDy=0;entryX=1;entryY=0.5;entryDx=0;entryDy=0;" edge="1" parent="1" source="303ed1de8c2c98b4-7" target="303ed1de8c2c98b4-15">
          <mxGeometry relative="1" as="geometry">
            <Array as="points">
              <mxPoint x="272" y="660" />
            </Array>
          </mxGeometry>
        </mxCell>
        <mxCell id="PayPif_bL6CVU6YwnWkn-25" style="edgeStyle=orthogonalEdgeStyle;rounded=0;orthogonalLoop=1;jettySize=auto;html=1;exitX=0.5;exitY=1;exitDx=0;exitDy=0;entryX=0;entryY=0.5;entryDx=0;entryDy=0;" edge="1" parent="1" source="303ed1de8c2c98b4-7" target="303ed1de8c2c98b4-16">
          <mxGeometry relative="1" as="geometry">
            <Array as="points">
              <mxPoint x="272" y="660" />
            </Array>
          </mxGeometry>
        </mxCell>
        <mxCell id="PayPif_bL6CVU6YwnWkn-34" style="edgeStyle=orthogonalEdgeStyle;rounded=0;orthogonalLoop=1;jettySize=auto;html=1;exitX=0.5;exitY=1;exitDx=0;exitDy=0;entryX=1;entryY=0.5;entryDx=0;entryDy=0;" edge="1" parent="1" source="303ed1de8c2c98b4-7" target="303ed1de8c2c98b4-69">
          <mxGeometry relative="1" as="geometry">
            <Array as="points">
              <mxPoint x="272" y="770" />
            </Array>
          </mxGeometry>
        </mxCell>
        <mxCell id="303ed1de8c2c98b4-7" value="Chat usuarios" style="whiteSpace=wrap;html=1;rounded=1;shadow=1;strokeWidth=1;fontSize=16;align=center;gradientColor=none;strokeColor=#97D077;" parent="1" vertex="1">
          <mxGeometry x="134" y="548" width="275" height="40" as="geometry" />
        </mxCell>
        <mxCell id="PayPif_bL6CVU6YwnWkn-12" style="edgeStyle=orthogonalEdgeStyle;rounded=0;orthogonalLoop=1;jettySize=auto;html=1;exitX=1;exitY=0.5;exitDx=0;exitDy=0;entryX=0;entryY=0.5;entryDx=0;entryDy=0;" edge="1" parent="1" source="303ed1de8c2c98b4-8" target="303ed1de8c2c98b4-9">
          <mxGeometry relative="1" as="geometry" />
        </mxCell>
        <mxCell id="PayPif_bL6CVU6YwnWkn-21" style="edgeStyle=orthogonalEdgeStyle;rounded=0;orthogonalLoop=1;jettySize=auto;html=1;exitX=0.5;exitY=1;exitDx=0;exitDy=0;entryX=0;entryY=0.5;entryDx=0;entryDy=0;" edge="1" parent="1" source="303ed1de8c2c98b4-8" target="303ed1de8c2c98b4-18">
          <mxGeometry relative="1" as="geometry">
            <Array as="points">
              <mxPoint x="1190" y="660" />
            </Array>
          </mxGeometry>
        </mxCell>
        <mxCell id="PayPif_bL6CVU6YwnWkn-22" style="edgeStyle=orthogonalEdgeStyle;rounded=0;orthogonalLoop=1;jettySize=auto;html=1;exitX=0.5;exitY=1;exitDx=0;exitDy=0;entryX=1;entryY=0.5;entryDx=0;entryDy=0;" edge="1" parent="1" source="303ed1de8c2c98b4-8" target="303ed1de8c2c98b4-17">
          <mxGeometry relative="1" as="geometry">
            <Array as="points">
              <mxPoint x="1190" y="660" />
            </Array>
          </mxGeometry>
        </mxCell>
        <mxCell id="303ed1de8c2c98b4-8" value="Registro da arte" style="whiteSpace=wrap;html=1;rounded=1;shadow=1;strokeWidth=1;fontSize=16;align=center;strokeColor=#97D077;" parent="1" vertex="1">
          <mxGeometry x="1053" y="548" width="275" height="40" as="geometry" />
        </mxCell>
        <mxCell id="PayPif_bL6CVU6YwnWkn-17" style="rounded=0;orthogonalLoop=1;jettySize=auto;html=1;exitX=0.5;exitY=1;exitDx=0;exitDy=0;entryX=0;entryY=0.5;entryDx=0;entryDy=0;edgeStyle=orthogonalEdgeStyle;" edge="1" parent="1" source="303ed1de8c2c98b4-9" target="303ed1de8c2c98b4-30">
          <mxGeometry relative="1" as="geometry">
            <Array as="points">
              <mxPoint x="1490" y="770" />
            </Array>
          </mxGeometry>
        </mxCell>
        <mxCell id="PayPif_bL6CVU6YwnWkn-18" style="edgeStyle=orthogonalEdgeStyle;rounded=0;orthogonalLoop=1;jettySize=auto;html=1;exitX=0.5;exitY=1;exitDx=0;exitDy=0;entryX=0;entryY=0.5;entryDx=0;entryDy=0;" edge="1" parent="1" source="303ed1de8c2c98b4-9" target="303ed1de8c2c98b4-20">
          <mxGeometry relative="1" as="geometry">
            <Array as="points">
              <mxPoint x="1490" y="660" />
            </Array>
          </mxGeometry>
        </mxCell>
        <mxCell id="PayPif_bL6CVU6YwnWkn-19" style="edgeStyle=orthogonalEdgeStyle;rounded=0;orthogonalLoop=1;jettySize=auto;html=1;exitX=0.5;exitY=1;exitDx=0;exitDy=0;entryX=1;entryY=0.5;entryDx=0;entryDy=0;" edge="1" parent="1" source="303ed1de8c2c98b4-9" target="303ed1de8c2c98b4-19">
          <mxGeometry relative="1" as="geometry">
            <Array as="points">
              <mxPoint x="1490" y="660" />
            </Array>
          </mxGeometry>
        </mxCell>
        <mxCell id="PayPif_bL6CVU6YwnWkn-20" style="edgeStyle=orthogonalEdgeStyle;rounded=0;orthogonalLoop=1;jettySize=auto;html=1;exitX=0.5;exitY=1;exitDx=0;exitDy=0;entryX=1;entryY=0.5;entryDx=0;entryDy=0;" edge="1" parent="1" source="303ed1de8c2c98b4-9" target="303ed1de8c2c98b4-29">
          <mxGeometry relative="1" as="geometry">
            <Array as="points">
              <mxPoint x="1490" y="770" />
            </Array>
          </mxGeometry>
        </mxCell>
        <mxCell id="PayPif_bL6CVU6YwnWkn-23" style="edgeStyle=orthogonalEdgeStyle;rounded=0;orthogonalLoop=1;jettySize=auto;html=1;exitX=0.5;exitY=1;exitDx=0;exitDy=0;entryX=1;entryY=0.5;entryDx=0;entryDy=0;" edge="1" parent="1" source="303ed1de8c2c98b4-9" target="303ed1de8c2c98b4-39">
          <mxGeometry relative="1" as="geometry">
            <Array as="points">
              <mxPoint x="1490" y="879" />
            </Array>
          </mxGeometry>
        </mxCell>
        <mxCell id="303ed1de8c2c98b4-9" value="Codice" style="whiteSpace=wrap;html=1;rounded=1;shadow=1;strokeWidth=1;fontSize=16;align=center;strokeColor=#97D077;" parent="1" vertex="1">
          <mxGeometry x="1353" y="548" width="275" height="40" as="geometry" />
        </mxCell>
        <mxCell id="303ed1de8c2c98b4-10" value="Busca Usuario" style="whiteSpace=wrap;html=1;rounded=1;shadow=1;strokeWidth=1;fontSize=16;align=center;strokeColor=#97D077;" parent="1" vertex="1">
          <mxGeometry x="444" y="620" width="125" height="80" as="geometry" />
        </mxCell>
        <mxCell id="303ed1de8c2c98b4-12" value="Genero" style="whiteSpace=wrap;html=1;rounded=1;shadow=1;strokeWidth=1;fontSize=16;align=center;strokeColor=#97D077;" parent="1" vertex="1">
          <mxGeometry x="594" y="620" width="125" height="80" as="geometry" />
        </mxCell>
        <mxCell id="303ed1de8c2c98b4-13" value="Artes Favoritas" style="whiteSpace=wrap;html=1;rounded=1;shadow=1;strokeWidth=1;fontSize=16;align=center;strokeColor=#97D077;" parent="1" vertex="1">
          <mxGeometry x="751" y="620" width="125" height="80" as="geometry" />
        </mxCell>
        <mxCell id="303ed1de8c2c98b4-14" value="Modo quadro" style="whiteSpace=wrap;html=1;rounded=1;shadow=1;strokeWidth=1;fontSize=16;align=center;strokeColor=#97D077;" parent="1" vertex="1">
          <mxGeometry x="901" y="620" width="125" height="80" as="geometry" />
        </mxCell>
        <mxCell id="303ed1de8c2c98b4-15" value="Grupos" style="whiteSpace=wrap;html=1;rounded=1;shadow=1;strokeWidth=1;fontSize=16;align=center;strokeColor=#97D077;" parent="1" vertex="1">
          <mxGeometry x="134" y="620" width="125" height="80" as="geometry" />
        </mxCell>
        <mxCell id="303ed1de8c2c98b4-16" value="Direct" style="whiteSpace=wrap;html=1;rounded=1;shadow=1;strokeWidth=1;fontSize=16;align=center;strokeColor=#97D077;" parent="1" vertex="1">
          <mxGeometry x="284" y="620" width="125" height="80" as="geometry" />
        </mxCell>
        <mxCell id="303ed1de8c2c98b4-17" value="Arte Fisica" style="whiteSpace=wrap;html=1;rounded=1;shadow=1;strokeWidth=1;fontSize=16;align=center;strokeColor=#97D077;" parent="1" vertex="1">
          <mxGeometry x="1054" y="620" width="125" height="80" as="geometry" />
        </mxCell>
        <mxCell id="303ed1de8c2c98b4-18" value="Arte Digital" style="whiteSpace=wrap;html=1;rounded=1;shadow=1;strokeWidth=1;fontSize=16;align=center;strokeColor=#97D077;" parent="1" vertex="1">
          <mxGeometry x="1204" y="620" width="125" height="80" as="geometry" />
        </mxCell>
        <mxCell id="303ed1de8c2c98b4-19" value="Nome arte" style="whiteSpace=wrap;html=1;rounded=1;shadow=1;strokeWidth=1;fontSize=16;align=center;strokeColor=#97D077;" parent="1" vertex="1">
          <mxGeometry x="1353" y="620" width="125" height="80" as="geometry" />
        </mxCell>
        <mxCell id="303ed1de8c2c98b4-20" value="Data de Registro" style="whiteSpace=wrap;html=1;rounded=1;shadow=1;strokeWidth=1;fontSize=16;align=center;strokeColor=#97D077;" parent="1" vertex="1">
          <mxGeometry x="1505" y="620" width="125" height="80" as="geometry" />
        </mxCell>
        <mxCell id="303ed1de8c2c98b4-21" value="Aleatorio" style="whiteSpace=wrap;html=1;rounded=1;shadow=1;strokeWidth=1;fontSize=16;align=center;dashed=1;" parent="1" vertex="1">
          <mxGeometry x="444" y="730" width="125" height="80" as="geometry" />
        </mxCell>
        <mxCell id="303ed1de8c2c98b4-22" value="Palavra - chave" style="whiteSpace=wrap;html=1;rounded=1;shadow=1;strokeWidth=1;fontSize=16;align=center;strokeColor=#97D077;" parent="1" vertex="1">
          <mxGeometry x="594" y="730" width="125" height="80" as="geometry" />
        </mxCell>
        <mxCell id="303ed1de8c2c98b4-23" value="Modo slide" style="whiteSpace=wrap;html=1;rounded=1;shadow=1;strokeWidth=1;fontSize=16;align=center;strokeColor=#97D077;" parent="1" vertex="1">
          <mxGeometry x="751" y="730" width="125" height="80" as="geometry" />
        </mxCell>
        <mxCell id="303ed1de8c2c98b4-24" value="Manual" style="whiteSpace=wrap;html=1;rounded=1;shadow=1;strokeWidth=1;fontSize=16;align=center;strokeColor=#97D077;" parent="1" vertex="1">
          <mxGeometry x="901" y="730" width="125" height="80" as="geometry" />
        </mxCell>
        <mxCell id="303ed1de8c2c98b4-29" value="&lt;span&gt;Descrição&lt;/span&gt;" style="whiteSpace=wrap;html=1;rounded=1;shadow=1;strokeWidth=1;fontSize=16;align=center;strokeColor=#97D077;" parent="1" vertex="1">
          <mxGeometry x="1353" y="730" width="125" height="80" as="geometry" />
        </mxCell>
        <mxCell id="303ed1de8c2c98b4-30" value="Anotações" style="whiteSpace=wrap;html=1;rounded=1;shadow=1;strokeWidth=1;fontSize=16;align=center;strokeColor=#97D077;" parent="1" vertex="1">
          <mxGeometry x="1505" y="730" width="125" height="80" as="geometry" />
        </mxCell>
        <mxCell id="303ed1de8c2c98b4-39" value="Genero" style="whiteSpace=wrap;html=1;rounded=1;shadow=1;strokeWidth=1;fontSize=16;align=center;strokeColor=#97D077;" parent="1" vertex="1">
          <mxGeometry x="1353" y="839" width="125" height="80" as="geometry" />
        </mxCell>
        <mxCell id="303ed1de8c2c98b4-69" value="Foruns" style="whiteSpace=wrap;html=1;rounded=1;shadow=1;strokeWidth=1;fontSize=16;align=center;strokeColor=#97D077;" parent="1" vertex="1">
          <mxGeometry x="134" y="730" width="125" height="80" as="geometry" />
        </mxCell>
        <mxCell id="303ed1de8c2c98b4-79" style="edgeStyle=orthogonalEdgeStyle;html=1;startSize=6;endFill=0;endSize=6;strokeWidth=1;fontSize=16;rounded=0;endArrow=none;" parent="1" source="303ed1de8c2c98b4-3" target="303ed1de8c2c98b4-4" edge="1">
          <mxGeometry relative="1" as="geometry" />
        </mxCell>
        <mxCell id="PayPif_bL6CVU6YwnWkn-9" value="" style="edgeStyle=orthogonalEdgeStyle;rounded=0;orthogonalLoop=1;jettySize=auto;html=1;" edge="1" parent="1" target="303ed1de8c2c98b4-6">
          <mxGeometry relative="1" as="geometry">
            <mxPoint x="889" y="488" as="sourcePoint" />
          </mxGeometry>
        </mxCell>
        <mxCell id="PayPif_bL6CVU6YwnWkn-15" style="edgeStyle=orthogonalEdgeStyle;rounded=0;orthogonalLoop=1;jettySize=auto;html=1;exitX=0;exitY=0.5;exitDx=0;exitDy=0;entryX=1;entryY=0.5;entryDx=0;entryDy=0;" edge="1" parent="1" source="PayPif_bL6CVU6YwnWkn-1" target="PayPif_bL6CVU6YwnWkn-6">
          <mxGeometry relative="1" as="geometry" />
        </mxCell>
        <mxCell id="PayPif_bL6CVU6YwnWkn-41" style="edgeStyle=orthogonalEdgeStyle;rounded=0;orthogonalLoop=1;jettySize=auto;html=1;exitX=0.75;exitY=0;exitDx=0;exitDy=0;endArrow=ERone;endFill=0;strokeColor=#B5739D;" edge="1" parent="1" source="PayPif_bL6CVU6YwnWkn-1">
          <mxGeometry relative="1" as="geometry">
            <mxPoint x="1434" y="410" as="targetPoint" />
          </mxGeometry>
        </mxCell>
        <mxCell id="PayPif_bL6CVU6YwnWkn-1" value="Login" style="whiteSpace=wrap;html=1;fontSize=16;rounded=1;shadow=1;strokeWidth=1;strokeColor=#97D077;" vertex="1" parent="1">
          <mxGeometry x="829" y="450" width="120" height="60" as="geometry" />
        </mxCell>
        <mxCell id="PayPif_bL6CVU6YwnWkn-16" style="edgeStyle=orthogonalEdgeStyle;rounded=0;orthogonalLoop=1;jettySize=auto;html=1;exitX=0;exitY=0.5;exitDx=0;exitDy=0;entryX=1;entryY=0.5;entryDx=0;entryDy=0;" edge="1" parent="1" source="PayPif_bL6CVU6YwnWkn-4" target="PayPif_bL6CVU6YwnWkn-1">
          <mxGeometry relative="1" as="geometry" />
        </mxCell>
        <mxCell id="PayPif_bL6CVU6YwnWkn-4" value="Registro" style="whiteSpace=wrap;html=1;fontSize=16;rounded=1;shadow=1;strokeWidth=1;dashed=1;" vertex="1" parent="1">
          <mxGeometry x="964" y="450" width="120" height="60" as="geometry" />
        </mxCell>
        <mxCell id="PayPif_bL6CVU6YwnWkn-35" style="edgeStyle=orthogonalEdgeStyle;rounded=0;orthogonalLoop=1;jettySize=auto;html=1;exitX=0;exitY=0.5;exitDx=0;exitDy=0;entryX=0.5;entryY=0;entryDx=0;entryDy=0;" edge="1" parent="1" source="PayPif_bL6CVU6YwnWkn-6" target="303ed1de8c2c98b4-5">
          <mxGeometry relative="1" as="geometry" />
        </mxCell>
        <mxCell id="PayPif_bL6CVU6YwnWkn-6" value="Busca" style="whiteSpace=wrap;html=1;fontSize=16;rounded=1;shadow=1;strokeWidth=1;dashed=1;" vertex="1" parent="1">
          <mxGeometry x="694" y="450" width="120" height="60" as="geometry" />
        </mxCell>
        <mxCell id="PayPif_bL6CVU6YwnWkn-36" value="&lt;font&gt;Area para Registrados&lt;/font&gt;" style="rounded=0;whiteSpace=wrap;html=1;fillColor=default;strokeColor=#97D077;fontColor=#FFFFFF;" vertex="1" parent="1">
          <mxGeometry x="124" y="300" width="140" height="30" as="geometry" />
        </mxCell>
        <mxCell id="PayPif_bL6CVU6YwnWkn-37" value="Area aberta" style="whiteSpace=wrap;html=1;rounded=1;shadow=1;strokeWidth=1;fontSize=16;align=center;dashed=1;" vertex="1" parent="1">
          <mxGeometry x="124" y="350" width="140" height="20" as="geometry" />
        </mxCell>
        <mxCell id="PayPif_bL6CVU6YwnWkn-38" value="" style="shape=curlyBracket;whiteSpace=wrap;html=1;rounded=1;flipH=1;labelPosition=right;verticalLabelPosition=middle;align=left;verticalAlign=middle;rotation=90;strokeColor=#B5739D;" vertex="1" parent="1">
          <mxGeometry x="1184" y="580" width="20" height="280" as="geometry" />
        </mxCell>
        <mxCell id="PayPif_bL6CVU6YwnWkn-40" value="AID ( P/ BD)" style="ellipse;whiteSpace=wrap;html=1;aspect=fixed;fontStyle=1;fillColor=#660000;" vertex="1" parent="1">
          <mxGeometry x="1154" y="730" width="80" height="80" as="geometry" />
        </mxCell>
        <mxCell id="PayPif_bL6CVU6YwnWkn-42" value="UID ( P/ BD)" style="ellipse;whiteSpace=wrap;html=1;aspect=fixed;fontStyle=1;fillColor=#660000;" vertex="1" parent="1">
          <mxGeometry x="1394" y="330" width="80" height="80" as="geometry" />
        </mxCell>
        <mxCell id="PayPif_bL6CVU6YwnWkn-43" value="PK p/ BD" style="ellipse;whiteSpace=wrap;html=1;aspect=fixed;fontStyle=1;fillColor=#660000;" vertex="1" parent="1">
          <mxGeometry x="124" y="380" width="50" height="50" as="geometry" />
        </mxCell>
      </root>
    </mxGraphModel>
  </diagram>
</mxfile>
